<?xml version="1.0" encoding="UTF-8" standalone="no"?>
<!-- Created with Inkscape (http://www.inkscape.org/) -->

<svg
   width="210.1591mm"
   height="72.066399mm"
   viewBox="0 0 210.1591 72.066399"
   version="1.1"
   id="svg5"
   inkscape:version="1.2.2 (b0a8486541, 2022-12-01)"
   sodipodi:docname="logo_forsynth.svg"
   xmlns:inkscape="http://www.inkscape.org/namespaces/inkscape"
   xmlns:sodipodi="http://sodipodi.sourceforge.net/DTD/sodipodi-0.dtd"
   xmlns="http://www.w3.org/2000/svg"
   xmlns:svg="http://www.w3.org/2000/svg">
  <sodipodi:namedview
     id="namedview7"
     pagecolor="#ffffff"
     bordercolor="#666666"
     borderopacity="1.0"
     inkscape:pageshadow="2"
     inkscape:pageopacity="0.0"
     inkscape:pagecheckerboard="0"
     inkscape:document-units="mm"
     showgrid="false"
     inkscape:zoom="0.44785584"
     inkscape:cx="407.4972"
     inkscape:cy="138.43741"
     inkscape:window-width="1920"
     inkscape:window-height="1014"
     inkscape:window-x="0"
     inkscape:window-y="0"
     inkscape:window-maximized="1"
     inkscape:current-layer="layer1"
     inkscape:showpageshadow="2"
     inkscape:deskcolor="#d1d1d1" />
  <defs
     id="defs2">
    <pattern
       id="diagonalFill"
       width="1.000000"
       height="1.000000"
       patternUnits="userSpaceOnUse"
       patternTransform="rotate(45)">
      <rect
         x=".000000"
         y=".000000"
         width="4.000000"
         height="1.000000"
         fill="#6d5192"
         id="rect6" />
    </pattern>
  </defs>
  <g
     inkscape:label="Calque 1"
     inkscape:groupmode="layer"
     id="layer1"
     transform="translate(0.0397925,-172.87604)">
    <g
       id="g6"
       transform="matrix(0.58203276,0,0,0.00475052,-32.799737,232.50284)"
       style="opacity:0.189696;fill:none;fill-opacity:1;stroke:#964f4f;stroke-opacity:1">
      <path
         fill="none"
         stroke="#02063b"
         paint-order="fill stroke markers"
         d="m 67.520073,1206.9136 0.938478,-1.7969 0.938478,-2.6534 0.938477,-3.5076 0.938478,-4.3588 0.938478,-5.2062 0.938478,-6.0492 0.938478,-6.8869 0.938477,-7.7186 0.938477,-8.5438 0.938478,-9.3613 0.938478,-10.1709 0.938478,-10.9718 0.938477,-11.763 0.938477,-12.5442 0.938478,-13.3143 0.938478,-14.0732 0.938479,-14.8197 0.938476,-15.5535 0.938479,-16.2739 0.938477,-16.98 0.938478,-17.67161 0.938478,-18.3478 0.938476,-19.0082 0.938479,-19.6521 0.938477,-20.2791 0.938478,-20.8886 0.938477,-21.47991 0.938477,-22.0525 0.938479,-22.6063 0.938478,-23.1403 0.938478,-23.6546 0.938477,-24.14801 0.938477,-24.6209 0.938479,-25.0724 0.938475,-25.5022 0.93848,-25.90981 0.93848,-26.295 0.93847,-26.6578 0.93848,-26.9972 0.93848,-27.31341 0.93848,-27.6059 0.93848,-27.8746 0.93847,-28.1189 0.93848,-28.33941 0.93848,-28.535 0.93847,-28.7058 0.93849,-28.8523 0.93847,-28.97341 0.93848,-29.0695 0.93849,-29.1406 0.93845,-29.1865 0.93849,-29.20682 0.93848,-29.20226 0.93848,-29.17231 0.93847,-29.11713 0.93849,-29.036744 0.93847,-28.93126 0.93848,-28.80074 0.93848,-28.6453004 0.93847,-28.4651136 0.93848,-28.26027 0.93847,-28.03099 0.93849,-27.777472 0.93847,-27.49995 0.93848,-27.19857 0.93848,-26.87375 0.93848,-26.52562 0.93848,-26.15455 0.93847,-25.7609 0.93849,-25.34496 0.93847,-24.90708 0.93848,-24.44763 0.93846,-23.96708 0.93848,-23.46575 0.93849,-22.94417 0.93847,-22.40271 0.93849,-21.84188 0.93847,-21.26219 0.93848,-20.66404 0.93848,-20.04809 0.93849,-19.41473 0.93846,-18.76466 0.93847,-18.09828 0.93849,-17.41627 0.93847,-16.7192 0.93849,-16.00768 0.93846,-15.2823 0.93849,-14.54371 0.93848,-13.79252 0.93847,-13.02942 0.93848,-12.25503 0.93848,-11.47005 0.93848,-10.67516 0.93847,-9.87103 0.93849,-9.05835 0.93846,-8.23784 0.93849,-7.41021 0.93847,-6.57617 0.93848,-5.73643 0.93848,-4.89174 0.93847,-4.04282 0.93849,-3.19039 0.93848,-2.33522 0.93848,-1.47801 0.93846,-0.61953 0.93849,0.23948 0.93847,1.09829 0.93848,1.95615 0.93848,2.81232 0.93847,3.66605 0.93849,4.51661 0.93847,5.36326 0.93849,6.20529 0.93847,7.04193 0.93847,7.8725 0.93848,8.69624 0.93848,9.51247 0.93847,10.32046 0.93848,11.11954 0.93849,11.90899 0.93847,12.68813 0.93849,13.45633 0.93847,14.21286 0.93847,14.95709 0.93849,15.68841 0.93847,16.40613 0.93847,17.10969 0.93848,17.79841 0.93848,18.4718 0.93848,19.12913 0.93849,19.76996 0.93846,20.39369 0.93848,20.99979 0.93849,21.5877 0.93847,22.15693 0.93848,22.70704 0.93847,23.23744 0.93848,23.74779 0.93848,24.23761 0.93847,24.70641 0.93848,25.15389 0.93848,25.57958 0.93848,25.98317 0.93848,26.36426 0.93848,26.72256 0.93847,27.05775 0.93849,27.36952 0.93847,27.657632 0.93847,27.92182 0.93848,28.16183 0.93847,28.3775136 0.93849,28.5686104 0.93848,28.73503 0.93847,28.87658 0.93848,28.993184 0.93849,29.08465 0.93847,29.151 0.93848,29.19211 0.93847,29.20807 0.93847,29.1985 0.93849,29.164 0.93848,29.1041 0.93847,29.01901 0.93848,28.9089 0.93847,28.7737 0.93849,28.6138 0.93848,28.42891 0.93847,28.2194 0.93848,27.9857 0.93848,27.7277 0.93847,27.44571 0.93849,27.1401 0.93847,26.8107 0.93847,26.4584 0.93849,26.08321 0.93848,25.6852 0.93847,25.2652 0.93848,24.8232 0.93848,24.36 0.93848,23.87551 0.93848,23.3703 0.93846,22.845 0.93848,22.3 0.93849,21.73551 0.93847,21.1524 0.93848,20.551 0.93848,19.9317 0.93848,19.2952 0.93848,18.6419 0.93847,17.97281 0.93848,17.2878 0.93847,16.5879 0.93848,15.8739 0.93848,15.1461 0.93848,14.4051 0.93847,13.6514 0.93849,12.8865 0.93848,12.1098 0.93847,11.3231 0.93848,10.5264 0.93848,9.7207 0.93847,8.9063 0.93848,8.0845 0.93847,7.2557 0.93848,6.4206 0.93849,5.5798 0.93847,4.7342 0.93848,3.8847 0.93848,3.0317 0.93847,2.1759 0.93849,1.3187 0.93848,0.4598 0.93846,-0.3991 0.93848,-1.2579 0.93848,-2.1153 0.93848,-2.9712 0.93848,-3.8244 0.93847,-4.6743 0.93848,-5.5201 0.93849,-6.3612 0.93847,-7.1968 0.93848,-8.0262 0.93848,-8.8486 0.93846,-9.6631 0.93849,-10.4698 0.93848,-11.2669 0.93847,-12.0546 0.93848,-12.8318 0.93848,-13.5979 0.93848,-14.352 0.93847,-15.094 0.93848,-15.8229 0.93848,-16.538 0.93849,-17.2387 0.93846,-17.92491 0.93848,-18.595 0.93848,-19.2496 0.93848,-19.8872 0.93848,-20.5077 0.93847,-21.1104 0.93848,-21.69501 0.93848,-22.2606 0.93848,-22.807 0.93848,-23.3339 0.93848,-23.84041 0.93846,-24.3263 0.93849,-24.7913 0.93848,-25.2346 0.93846,-25.6563 0.93849,-26.05571 0.93848,-26.4327 0.93848,-26.7864 0.93848,-27.1176 0.93848,-27.42481 0.93847,-27.7085 0.93848,-27.9684 0.93847,-28.2036 0.93847,-28.41491 0.93849,-28.6015 0.93847,-28.7632 0.93849,-28.9001 0.93848,-29.01201 0.93847,-29.099 0.93848,-29.1605 0.93848,-29.1971 0.93848,-29.20809 0.93847,-29.19407 0.93847,-29.15475 0.93848,-29.09019 0.93849,-29.000464 0.93847,-28.88565 0.93848,-28.74585 0.93848,-28.5812304 0.93847,-28.3918136 0.93849,-28.1779 0.93847,-27.93959 0.93848,-27.677112 0.93848,-27.39067 0.93848,-27.08059 0.93847,-26.74703 0.93847,-26.39037 0.93848,-26.01087 0.93848,-25.60888 0.93849,-25.18472 0.93846,-24.7388 0.93849,-24.27145 0.93848,-23.78314 0.93848,-23.27424 0.93847,-22.74519 0.93847,-22.19649 0.93848,-21.6286 0.93848,-21.04196 0.93849,-20.43717 0.93846,-19.81464 0.93849,-19.17505 0.93847,-18.51883 0.93849,-17.84658 0.93848,-17.15889 0.93846,-16.45639 0.93848,-15.73963 0.93848,-15.00928 0.93848,-14.26593 0.93847,-13.51023 0.93849,-12.74286 0.93847,-11.96446 0.93848,-11.17572 0.93848,-10.3773 0.93847,-9.56991 0.93849,-8.75425 0.93847,-7.93101 0.93848,-7.1009 0.93847,-6.26467 0.93848,-5.423 0.93848,-4.57665 0.93848,-3.72634 0.93848,-2.87281 0.93847,-2.01679 0.93849,-1.15902 0.93847,-0.30026 0.93849,0.55876 0.93846,1.41731 0.93848,2.27463 0.93848,3.12997 0.93847,3.98261 0.93849,4.83181 0.93847,5.67682 0.93848,6.51694 0.93848,7.3514 0.93849,8.17951 0.93846,9.00055 0.93848,9.8138 0.93849,10.61856 0.93846,11.41414 0.93849,12.19984 0.93846,12.97499 0.93849,13.73891 0.93848,14.49096 0.93848,15.23048 0.93847,15.9568 0.93848,16.66932 0.93848,17.36747 0.93848,18.05053 0.93849,18.718 0.93845,19.36932 0.93849,20.00383 0.93847,20.62105 0.93849,21.22047 0.93847,21.80147 0.93847,22.36369 0.93849,22.90649 0.93848,23.42951 0.93848,23.93228 0.93847,24.41432 0.93848,24.87526 0.93847,25.3147 0.93848,25.7322 0.93848,26.12746 0.93847,26.50012 0.93849,26.84986 0.93847,27.17638 0.93849,27.47941"
         stroke-linecap="round"
         stroke-linejoin="round"
         stroke-miterlimit="10"
         stroke-width="21.7544"
         id="path4"
         style="fill:none;fill-opacity:1;stroke:#964f4f;stroke-opacity:1"
         sodipodi:nodetypes="cccccccccccccccccccccccccccccccccccccccccccccccccccccccccccccccccccccccccccccccccccccccccccccccccccccccccccccccccccccccccccccccccccccccccccccccccccccccccccccccccccccccccccccccccccccccccccccccccccccccccccccccccccccccccccccccccccccccccccccccccccccccccccccccccccccccccccccccccccccccccccccccccccccccccccccccccccccccccccccccccccccccccccccccccccccccccccccccccccccccccc" />
    </g>
    <g
       id="g2196"
       transform="matrix(0.58053616,0,0,0.01007654,-54.078078,224.82635)"
       style="opacity:0.222482;fill:none;fill-opacity:1;stroke:#734f96;stroke-opacity:1">
      <path
         fill="none"
         stroke="#02063b"
         paint-order="fill stroke markers"
         d="m 104.08926,1386.1624 0.96316,-26.9314 0.96316,-27.2469 0.96316,-27.5386 0.96318,-27.8067 0.96316,-28.0505 0.96316,-28.2702 0.96316,-28.4655 0.96317,-28.6361 0.96317,-28.782 0.96315,-28.9027 0.96317,-28.9988 0.96317,-29.0697 0.96316,-29.1152 0.96316,-29.1358 0.96317,-29.13112 0.96317,-29.10125 0.96315,-29.04621 0.96317,-28.96602 0.96317,-28.86081 0.96315,-28.73058 0.96317,-28.57552 0.96316,-28.39578 0.96318,-28.19144 0.96315,-27.96272 0.96317,-27.70982 0.96317,-27.43296 0.96316,-27.13234 0.96316,-26.80827 0.96316,-26.46103 0.96317,-26.09085 0.96316,-25.69816 0.96317,-25.28323 0.96316,-24.8464 0.96317,-24.38809 0.96316,-23.90869 0.96316,-23.40861 0.96316,-22.88828 0.96317,-22.34814 0.96317,-21.7887 0.96316,-21.21038 0.96317,-20.61372 0.96316,-19.99925 0.96317,-19.36746 0.96315,-18.71894 0.96317,-18.0542 0.96317,-17.37386 0.96315,-16.67848 0.96317,-15.96868 0.96317,-15.24509 0.96317,-14.50828 0.96315,-13.75892 0.96317,-12.99769 0.96317,-12.225181 0.96315,-11.442119 0.96317,-10.649157 0.96317,-9.846983 0.96317,-9.036286 0.96315,-8.217781 0.96317,-7.39216 0.96317,-6.560149 0.96315,-5.722466 0.96317,-4.879827 0.96316,-4.03297 0.96317,-3.1826242 0.96316,-2.3295264 0.96317,-1.4744147 0.96316,-0.6180223 0.96317,0.2388963 0.96316,1.0956172 0.96316,1.9513861 0.96317,2.805466 0.96316,3.657121 0.96317,4.505613 0.96316,5.350204 0.96317,6.190173 0.96316,7.024784 0.96316,7.853318 0.96316,8.67506 0.96317,9.4893 0.96317,10.295328 0.96315,11.092455 0.96317,11.879984 0.96317,12.657231 0.96317,13.42355 0.96315,14.17824 0.96317,14.92067 0.96317,15.65019 0.96315,16.36617 0.96317,17.06802 0.96317,17.75506 0.96316,18.4268 0.96316,19.08255 0.96317,19.7218 0.96317,20.34401 0.96315,20.94866 0.96317,21.53512 0.96316,22.10296 0.96317,22.65172 0.96316,23.18085 0.96317,23.68994 0.96317,24.17859 0.96315,24.64623 0.96317,25.09263 0.96316,25.51726 0.96317,25.91989 0.96316,26.30005 0.96317,26.65748 0.96315,26.99184 0.96318,27.30287 0.96316,27.59026 0.96316,27.8538 0.96316,28.09323 0.96317,28.3084 0.96317,28.49903 0.96315,28.66504 0.96318,28.80626 0.96316,28.92254 0.96317,29.01382 0.96315,29.08 0.96317,29.12101 0.96317,29.13696 0.96315,29.1274 0.96317,29.0929 0.96317,29.0332 0.96316,28.9483 0.96316,28.8385 0.96317,28.7037 0.96317,28.544 0.96315,28.3597 0.96317,28.1507 0.96317,27.9175 0.96316,27.6602 0.96316,27.3789 0.96317,27.0739 0.96317,26.7455 0.96315,26.3939 0.96317,26.0196 0.96316,25.6227 0.96317,25.2036 0.96316,24.7629 0.96317,24.3006 0.96316,23.8172 0.96317,23.3135 0.96316,22.7894 0.96316,22.2456 0.96317,21.6827 0.96316,21.1008 0.96317,20.5009 0.96315,19.8831 0.96318,19.2482 0.96316,18.5966 0.96315,17.929 0.96317,17.2456 0.96317,16.5477 0.96317,15.8352 0.96315,15.1091 0.96317,14.37 0.96317,13.6182 0.96316,12.855 0.96316,12.0805 0.96317,11.2954 0.96317,10.5009 0.96315,9.6969 0.96317,8.8847 0.96317,8.0649 0.96316,7.2379 0.96316,6.4049 0.96317,5.5663 0.96316,4.7227 0.96316,3.8752 0.96317,3.0243 0.96316,2.1706 0.96317,1.3155 0.96316,0.4586 0.96317,-0.3981 0.96316,-1.2547 0.96316,-2.1104 0.96317,-2.9638 0.96316,-3.8152 0.96317,-4.6628 0.96316,-5.5068 0.96317,-6.3456 0.96315,-7.1793 0.96318,-8.0066 0.96316,-8.827 0.96315,-9.6396 0.96317,-10.4443 0.96317,-11.2396 0.96317,-12.0251 0.96315,-12.8006 0.96318,-13.5647 0.96316,-14.3172 0.96315,-15.0571 0.96317,-15.7845 0.96317,-16.4976 0.96317,-17.1968 0.96315,-17.8811 0.96317,-18.5499 0.96317,-19.2026 0.96316,-19.8387 0.96316,-20.4577 0.96316,-21.0591 0.96317,-21.6421 0.96316,-22.2064 0.96317,-22.7515 0.96317,-23.277 0.96316,-23.7824 0.96316,-24.2671 0.96317,-24.7308 0.96316,-25.1731 0.96316,-25.5939 0.96317,-25.9922 0.96315,-26.3682 0.96318,-26.7213 0.96316,-27.0515 0.96317,-27.3581 0.96316,-27.641 0.96316,-27.9001 0.96317,-28.1351 0.96315,-28.3457 0.96318,-28.5318 0.96316,-28.693 0.96317,-28.8298 0.96315,-28.9414 0.96318,-29.0281 0.96316,-29.0895 0.96315,-29.1259 0.96317,-29.13702 0.96317,-29.12296 0.96316,-29.08373 0.96316,-29.01933 0.96317,-28.92984 0.96317,-28.81529 0.96316,-28.67583 0.96316,-28.51163 0.96317,-28.32265 0.96316,-28.10927 0.96316,-27.87155 0.96317,-27.60969 0.96317,-27.32395 0.96316,-27.01464 0.96316,-26.68188 0.96316,-26.3261 0.96317,-25.9475 0.96316,-25.54651 0.96317,-25.12338 0.96316,-24.67854 0.96317,-24.21233 0.96316,-23.72522 0.96317,-23.21755 0.96316,-22.68978 0.96316,-22.14244 0.96317,-21.57593 0.96315,-20.9907 0.96318,-20.3874 0.96316,-19.76638 0.96317,-19.12834 0.96315,-18.47372 0.96318,-17.80311 0.96316,-17.11711 0.96315,-16.4163 0.96317,-15.7013 0.96317,-14.97272 0.96316,-14.23118 0.96316,-13.47732 0.96318,-12.711824 0.96316,-11.935321 0.96315,-11.148496 0.96317,-10.352028 0.96317,-9.546602 0.96316,-8.732926 0.96316,-7.911689 0.96317,-7.083613 0.96316,-6.249405 0.96317,-5.409794 0.96316,-4.565506 0.96316,-3.717266 0.96317,-2.8658088 0.96316,-2.0118775 0.96317,-1.1562038 0.96316,-0.2995289 0.96317,0.557405 0.96316,1.4138565 0.96317,2.2690838 0.96316,3.1223467 0.96316,3.972915 0.96317,4.820041 0.96315,5.662999 0.96318,6.501063 0.96316,7.333498 0.96316,8.159589 0.96317,8.978629 0.96316,9.789894 0.96317,10.592698 0.96315,11.386335 0.96318,12.170126 0.96316,12.94339 0.96316,13.70545 0.96316,14.45566 0.96318,15.19338 0.96316,15.91793 0.96315,16.62874 0.96317,17.32515 0.96317,18.00658 0.96316,18.67241 0.96316,19.32214 0.96317,19.9551 0.96316,20.57084 0.96317,21.16878 0.96316,21.74837 0.96317,22.30921 0.96316,22.8507 0.96316,23.37245 0.96317,23.87399 0.96316,24.35485 0.96317,24.81468 0.96316,25.25304 0.96316,25.66952 0.96317,26.06382 0.96316,26.43557 0.96317,26.78446 0.96316,27.1102 0.96317,27.41247 0.96316,27.691 0.96316,27.94564 0.96317,28.17606 0.96316,28.3821 0.96317,28.56363 0.96315,28.72043 0.96318,28.85241 0.96316,28.9594 0.96316,29.04135 0.96316,29.09816 0.96317,29.12985 0.96316,29.13622 0.96316,29.1177 0.96317,29.0737 0.96317,29.0046 0.96316,28.9104 0.96316,28.7912 0.96318,28.6473 0.96315,28.4782 0.96316,28.2849 0.96317,28.067 0.96317,27.8246 0.96316,27.5585 0.96316,27.2682 0.96317,26.9545 0.96316,26.6176 0.96317,26.2574 0.96316,25.8747 0.96316,25.4695 0.96317,25.0423"
         stroke-linecap="round"
         stroke-linejoin="round"
         stroke-miterlimit="10"
         stroke-width="22.0117"
         id="path2194"
         style="fill:none;fill-opacity:1;stroke:#734f96;stroke-opacity:1"
         sodipodi:nodetypes="cccccccccccccccccccccccccccccccccccccccccccccccccccccccccccccccccccccccccccccccccccccccccccccccccccccccccccccccccccccccccccccccccccccccccccccccccccccccccccccccccccccccccccccccccccccccccccccccccccccccccccccccccccccccccccccccccccccccccccccccccccccccccccccccccccccccccccccccccccccccccccccccccccccccccccccccccccccccccccccccccccccccccccccccccccccccccccccccccc" />
    </g>
    <g
       id="g373"
       transform="matrix(0.57930444,0,0,0.00824056,-5.6552183,225.2529)"
       style="opacity:0.199063;fill:none;fill-opacity:1;stroke:#4f9672;stroke-opacity:1">
      <path
         fill="none"
         stroke="#02063b"
         paint-order="fill stroke markers"
         d="m 20.999049,1544.3013 0.968676,23.9971 0.968674,23.5006 0.968675,22.9842 0.968674,22.4476 0.968674,21.8918 0.968675,21.3172 0.968675,20.7238 0.968675,20.1126 0.968675,19.4842 0.968674,18.8388 0.968675,18.177 0.968674,17.4997 0.968675,16.8071 0.968674,16.1 0.968674,15.379 0.968676,14.6447 0.968674,13.8976 0.968674,13.1387 0.968676,12.3682 0.968674,11.5873 0.968675,10.7962 0.968674,9.9956 0.968675,9.1867 0.968675,8.3695 0.968674,7.5453 0.968675,6.7147 0.968674,5.8778 0.968674,5.0364 0.968675,4.1901 0.968674,3.3406 0.968677,2.488 0.968674,1.6333 0.968674,0.7772 0.968675,-0.079 0.968674,-0.9364 0.968675,-1.7923 0.968674,-2.6466 0.968675,-3.4987 0.968675,-4.3477 0.968674,-5.193 0.968675,-6.0339 0.968674,-6.8695 0.968675,-7.699 0.968675,-8.522 0.968675,-9.3376 0.968675,-10.1451 0.968674,-10.9439 0.968674,-11.7331 0.968675,-12.5123 0.968674,-13.2807 0.968675,-14.0374 0.968674,-14.7821 0.968675,-15.514 0.968675,-16.2326 0.968674,-16.9368 0.968676,-17.6267 0.968674,-18.3014 0.968674,-18.9599 0.968675,-19.6021 0.968675,-20.2277 0.968675,-20.8356 0.968674,-21.4253 0.968674,-21.9965 0.968675,-22.5489 0.968674,-23.0816 0.968675,-23.5945 0.968674,-24.0868 0.968676,-24.5583 0.968675,-25.0088 0.968674,-25.4374 0.968675,-25.844 0.968674,-26.2284 0.968674,-26.59 0.968675,-26.9288 0.968675,-27.244 0.968675,-27.5358 0.968674,-27.8038 0.968674,-28.0477 0.968672,-28.2673 0.968681,-28.4625 0.96867,-28.6331 0.968678,-28.779 0.96867,-28.8998 0.96868,-28.9957 0.96867,-29.0667 0.96868,-29.1123 0.96867,-29.13274 0.96867,-29.12813 0.96869,-29.09825 0.96866,-29.04321 0.96869,-28.96303 0.96866,-28.85782 0.96867,-28.72763 0.96869,-28.57257 0.96866,-28.39285 0.96869,-28.18853 0.96867,-27.95984 0.96867,-27.70695 0.96868,-27.43013 0.96867,-27.12955 0.96868,-26.80551 0.96867,-26.45829 0.96867,-26.08816 0.96868,-25.69551 0.96867,-25.28062 0.96868,-24.84383 0.96868,-24.38558 0.96866,-23.90622 0.96868,-23.40619 0.96868,-22.88593 0.96867,-22.34584 0.96868,-21.78645 0.96867,-21.20819 0.96868,-20.61158 0.96867,-19.9972 0.96868,-19.36545 0.96867,-18.71702 0.96867,-18.05234 0.96868,-17.37205 0.96867,-16.67678 0.96868,-15.96703 0.96867,-15.24351 0.96868,-14.50678 0.96867,-13.75751 0.96867,-12.99633 0.96868,-12.223934 0.96867,-11.440939 0.96869,-10.648058 0.96866,-9.845967 0.96868,-9.035354 0.96867,-8.216934 0.96868,-7.391397 0.96868,-6.559473 0.96866,-5.721875 0.96869,-4.879323 0.96866,-4.032554 0.96868,-3.1822961 0.96868,-2.3292861 0.96867,-1.4742626 0.96868,-0.6179585 0.96868,0.2388716 0.96866,1.0955043 0.96868,1.9511846 0.96867,2.8051758 0.96868,3.656744 0.96868,4.505148 0.96866,5.349653 0.96869,6.189535 0.96866,7.024058 0.96868,7.852508 0.96868,8.674165 0.96866,9.488322 0.96869,10.294265 0.96867,11.091311 0.96868,11.878758 0.96867,12.655938 0.96867,13.42216 0.96868,14.17677 0.96867,14.91913 0.96868,15.64857 0.96867,16.36449 0.96868,17.06625 0.96867,17.75324 0.96868,18.4249 0.96867,19.08057 0.96868,19.71977 0.96868,20.34192 0.96866,20.9465 0.96868,21.53289 0.96867,22.10067 0.96868,22.64939 0.96868,23.17847 0.96867,23.68749 0.96867,24.17609 0.96867,24.64369 0.96868,25.09004 0.96868,25.51463 0.96867,25.91722 0.96867,26.29733 0.96868,26.65473 0.96867,26.98906 0.96869,27.30005 0.96866,27.58741 0.96868,27.85093 0.96868,28.09034 0.96866,28.30546 0.96869,28.49611 0.96866,28.66208 0.96869,28.80328 0.96867,28.91956 0.96867,29.01082 0.96868,29.077 0.96866,29.11801 0.96869,29.13388 0.96867,29.1245 0.96867,29.0898 0.96868,29.0303 0.96868,28.9454 0.96867,28.8354 0.96867,28.7007 0.96867,28.5411 0.96868,28.3567 0.96868,28.1479 0.96867,27.9146 0.96868,27.6573 0.96866,27.3761 0.96869,27.0711 0.96867,26.7427 0.96867,26.3912 0.96868,26.017 0.96868,25.62 0.96867,25.2011 0.96867,24.7602 0.96868,24.2982 0.96867,23.8147 0.96869,23.3111 0.96866,22.787 0.96867,22.2434 0.96868,21.6803 0.96867,21.0988 0.96869,20.4987 0.96866,19.8811 0.96868,19.2462 0.96867,18.5946 0.96867,17.9272 0.96869,17.2439 0.96866,16.5459 0.96868,15.8335 0.96868,15.1077 0.96867,14.3684 0.96868,13.6169 0.96867,12.8537 0.96868,12.0791 0.96867,11.2943 0.96867,10.4998 0.96868,9.6959 0.96867,8.8838 0.96868,8.064 0.96868,7.2373 0.96866,6.4042 0.96869,5.5657 0.96867,4.7222 0.96867,3.8748 0.96868,3.0239 0.96866,2.1706 0.96869,1.3151 0.96867,0.4588 0.96868,-0.3982 0.96867,-1.2546 0.96866,-2.1101 0.96869,-2.9636 0.96867,-3.8147 0.96868,-4.6624 0.96867,-5.5061 0.96867,-6.3451 0.96868,-7.1784 0.96868,-8.0058 0.96867,-8.8261 0.96867,-9.6386 0.96869,-10.4432 0.96866,-11.2384 0.96868,-12.024 0.96867,-12.7992 0.96868,-13.5634 0.96868,-14.3156 0.96866,-15.0557 0.96868,-15.7827 0.96867,-16.496 0.96868,-17.1951 0.96868,-17.8792 0.96867,-18.548 0.96867,-19.2005 0.96869,-19.8368 0.96866,-20.4556 0.96868,-21.0568 0.96867,-21.64 0.96867,-22.2041 0.96869,-22.7491 0.96866,-23.2746 0.96869,-23.78 0.96866,-24.2645 0.96869,-24.7282 0.96867,-25.1707 0.96866,-25.5911 0.96869,-25.9896 0.96867,-26.3655 0.96868,-26.7186 0.96867,-27.0486 0.96867,-27.3552 0.96868,-27.6383 0.96867,-27.8972 0.96868,-28.1322 0.96867,-28.3427 0.96867,-28.5288 0.96868,-28.6902 0.96868,-28.8267 0.96867,-28.9385 0.96868,-29.025 0.96866,-29.0866 0.96868,-29.1229 0.96868,-29.13394 0.96867,-29.11997 0.96868,-29.08073 0.96867,-29.01634 0.96868,-28.92685 0.96867,-28.81231 0.96868,-28.67288 0.96867,-28.50868 0.96868,-28.31974 0.96867,-28.10637 0.96867,-27.86866 0.96868,-27.60685 0.96867,-27.32113 0.96869,-27.01185 0.96866,-26.67913 0.96867,-26.32339 0.96869,-25.94482 0.96866,-25.54388 0.96869,-25.12079 0.96866,-24.67599 0.96868,-24.20982 0.96868,-23.72278 0.96867,-23.21516 0.96868,-22.68744 0.96866,-22.14015 0.96868,-21.5737 0.96868,-20.98854 0.96867,-20.38529 0.96868,-19.76435 0.96868,-19.12636 0.96867,-18.47181 0.96868,-17.80128 0.96866,-17.11534 0.96868,-16.41461 0.96868,-15.69968 0.96867,-14.97117 0.96868,-14.22972 0.96866,-13.47592 0.96869,-12.710521 0.96867,-11.93409 0.96867,-11.147345 0.96868,-10.350961 0.96866,-9.545616 0.96869,-8.732024 0.96867,-7.910875 0.96868,-7.082881 0.96867,-6.24876 0.96868,-5.409236 0.96867,-4.565036 0.96867,-3.716882 0.96868,-2.8655132"
         stroke-linecap="round"
         stroke-linejoin="round"
         stroke-miterlimit="10"
         stroke-width="22.0735"
         id="path371"
         style="fill:none;fill-opacity:1;stroke:#4f9672;stroke-opacity:1"
         sodipodi:nodetypes="cccccccccccccccccccccccccccccccccccccccccccccccccccccccccccccccccccccccccccccccccccccccccccccccccccccccccccccccccccccccccccccccccccccccccccccccccccccccccccccccccccccccccccccccccccccccccccccccccccccccccccccccccccccccccccccccccccccccccccccccccccccccccccccccccccccccccccccccccccccccccccccccccccccccccccccccccccccccccccccccccccccccccccccccccccccccccccccccc" />
    </g>
    <text
       xml:space="preserve"
       style="font-style:normal;font-variant:normal;font-weight:normal;font-stretch:normal;font-size:45.7631px;line-height:125%;font-family:'Standard Symbols PS';-inkscape-font-specification:'Standard Symbols PS, Normal';font-variant-ligatures:normal;font-variant-caps:normal;font-variant-numeric:normal;font-variant-east-asian:normal;letter-spacing:0px;word-spacing:0px;fill:#734f96;fill-opacity:1;stroke:none;stroke-width:1.14407px;stroke-linecap:butt;stroke-linejoin:miter;stroke-opacity:1"
       x="20.34042"
       y="217.19904"
       id="text56656"><tspan
         sodipodi:role="line"
         id="tspan56654"
         x="20.34042"
         y="217.19904"
         style="stroke-width:1.14407px"><tspan
           style="font-style:normal;font-variant:normal;font-weight:normal;font-stretch:normal;font-size:63.5px;font-family:'Standard Symbols PS';-inkscape-font-specification:'Standard Symbols PS, Normal';font-variant-ligatures:normal;font-variant-caps:normal;font-variant-numeric:normal;font-variant-east-asian:normal;fill:#734f96;fill-opacity:1;stroke-width:1.14407px"
           id="tspan56650">ğ†‘</tspan><tspan
           style="font-style:oblique;font-variant:normal;font-weight:normal;font-stretch:semi-condensed;font-size:45.7631px;font-family:'DejaVu Sans';-inkscape-font-specification:'DejaVu Sans, Oblique Semi-Condensed';font-variant-ligatures:normal;font-variant-caps:normal;font-variant-numeric:normal;font-variant-east-asian:normal;fill:#734f96;fill-opacity:1;stroke-width:1.14407px"
           id="tspan56652">orsynth</tspan></tspan></text>
    <g
       id="g310"
       transform="matrix(0.57930444,0,0,-0.00824056,-23.288431,298.89234)"
       style="opacity:0.199063;fill:none;fill-opacity:1;stroke:#4f9672;stroke-opacity:1" />
  </g>
</svg>
